<svg xmlns="http://www.w3.org/2000/svg" viewBox="0 0 300 790.89"><defs><style>.cls-1{isolation:isolate;}.cls-2{opacity:0.75;mix-blend-mode:multiply;}.cls-13,.cls-14,.cls-3,.cls-5{fill:none;stroke-miterlimit:10;}.cls-13,.cls-14,.cls-3{stroke:#000;}.cls-4{fill:#755112;}.cls-5{stroke:#1d1d1b;}.cls-6{fill:#0b0b0b;}.cls-7{fill:#a9a6a6;}.cls-8{fill:#2b2b2b;}.cls-9{fill:#5c5a5a;}.cls-10{fill:#008f95;}.cls-11{fill:#dba56c;}.cls-12{fill:#023f3f;}.cls-13{stroke-width:12px;}.cls-14{stroke-width:10px;}</style></defs><g class="cls-1"><g id="Layer_1" data-name="Layer 1"><g class="cls-2"><path d="M366.5,506.5c2.32,5.44,12.5,6.5,18.13,1.63a6.46,6.46,0,0,0,1.39-2.66c-.52-9-.52-12-2.52-21-.07-.33.13-1.07,0-5-.11-3.47-6.43,5.37-9.71,5.2-2.81-.15-3.79-1.3-6.67-2.84-.48-.26-2.25-2.73-2.62-2.36s0,5.53,0,6c0,10,.82,10.94,2,21"/><path class="cls-3" d="M366.5,506.5c2.32,5.44,12.5,6.5,18.13,1.63a6.46,6.46,0,0,0,1.39-2.66c-.52-9-.52-12-2.52-21-.07-.33.13-1.07,0-5-.11-3.47-6.43,5.37-9.71,5.2-2.81-.15-3.79-1.3-6.67-2.84-.48-.26-2.25-2.73-2.62-2.36s0,5.53,0,6c0,10,.82,10.94,2,21"/></g><path class="cls-4" d="M373.5,513.5c2.32,5.44,12.5,6.5,18.13,1.63a6.58,6.58,0,0,0,1.39-2.66c-.52-9-.52-12-2.52-21-.07-.33.13-1.07,0-5-.11-3.47-6.43,5.37-9.71,5.2-2.81-.15-3.79-1.3-6.67-2.85-.48-.25-2.25-2.72-2.62-2.35s0,5.53,0,6c0,10,.82,10.94,2,21"/><path class="cls-3" d="M373.5,513.5c2.32,5.44,12.5,6.5,18.13,1.63a6.58,6.58,0,0,0,1.39-2.66c-.52-9-.52-12-2.52-21-.07-.33.13-1.07,0-5-.11-3.47-6.43,5.37-9.71,5.2-2.81-.15-3.79-1.3-6.67-2.85-.48-.25-2.25-2.72-2.62-2.35s0,5.53,0,6c0,10,.82,10.94,2,21"/><g class="cls-2"><path d="M276.29,432.33a3.88,3.88,0,0,0-3.91.77,9.61,9.61,0,0,0-2.69,5.6l-1.5,8.51a3.92,3.92,0,0,0,.73,3.09,13.49,13.49,0,0,0,8.08,5.29,12.9,12.9,0,0,0,7.46-1.17,4,4,0,0,0,2.27-2.94l1.65-9.36a6.19,6.19,0,0,0-4-6.91Z"/><path class="cls-3" d="M276.29,432.33a3.88,3.88,0,0,0-3.91.77,9.61,9.61,0,0,0-2.69,5.6l-1.5,8.51a3.92,3.92,0,0,0,.73,3.09,13.49,13.49,0,0,0,8.08,5.29,12.9,12.9,0,0,0,7.46-1.17,4,4,0,0,0,2.27-2.94l1.65-9.36a6.19,6.19,0,0,0-4-6.91Z"/></g><path class="cls-4" d="M283.29,439.33a3.88,3.88,0,0,0-3.91.77,9.58,9.58,0,0,0-2.69,5.6l-1.51,8.51a4,4,0,0,0,.74,3.09,13.49,13.49,0,0,0,8.08,5.29,12.92,12.92,0,0,0,7.46-1.17,4,4,0,0,0,2.26-2.94l1.65-9.36a6.17,6.17,0,0,0-4-6.91Z"/><path class="cls-5" d="M283.29,439.33a3.88,3.88,0,0,0-3.91.77,9.58,9.58,0,0,0-2.69,5.6l-1.51,8.51a4,4,0,0,0,.74,3.09,13.49,13.49,0,0,0,8.08,5.29,12.92,12.92,0,0,0,7.46-1.17,4,4,0,0,0,2.26-2.94l1.65-9.36a6.17,6.17,0,0,0-4-6.91Z"/><polygon class="cls-6" points="135.79 223 540.55 223 540.5 195.5 135.79 195.4 135.79 223"/><polygon class="cls-7" points="142.5 203.5 142.5 214.5 535.79 214.13 535.79 203.5 142.5 203.5"/><path class="cls-6" d="M136.08,194.44,179.5,114.5h316l45,81H136.71A.71.71,0,0,1,136.08,194.44Z"/><path class="cls-8" d="M159.45,223C160.5,229.5,136,426.47,136,426.47H485l21.52-18V223Z"/><rect class="cls-9" x="171.66" y="223.73" width="324.77" height="185.09"/><rect class="cls-7" x="194.04" y="228.27" width="280" height="162"/><g class="cls-2"><path d="M256,285l-3.38-30.66a3.49,3.49,0,0,1,.21-1.66l13.32-34.44a3.53,3.53,0,0,1,3.3-2.26H415.5c.28,0,.5.72.5,1,0,0-2.58,6.86-6,8-3,1-.5.5-3,1l-30.14,7.5a3,3,0,0,0-2.93,2.29l-4.34,17.35a3.66,3.66,0,0,0-.1.74L368.15,294a3.07,3.07,0,0,0,.84,2.18c.89,1,1.79,2.23,2.95,3.34a8.07,8.07,0,0,1,2.49,5.9l-.92,87.7a3.09,3.09,0,0,0,.07.74l10.79,53a6.86,6.86,0,0,1,.14,1.27l.45,34.23a3.09,3.09,0,0,1-2.67,3.1,2.79,2.79,0,0,0-1.05.42L377.92,488a6.28,6.28,0,0,1-5.42.52l-6.19-2.82a2.7,2.7,0,0,0-.8-.21,3,3,0,0,1-2.5-2.35l-7.42-36.2a8.48,8.48,0,0,0-.22-.83L336.65,390a3.58,3.58,0,0,1-.18-.91c-.25-4.17-2.29-35.64-6.83-37s-15.13,25.84-16.07,28.32c-.05.12-.08.24-.12.37L304.5,415.5c-3.28,12.3-9.92,17.2-12.2,18.57a8.54,8.54,0,0,0-1.3.93c-1.7,1.48-8.22,2.25-13,1-4-1-6.6-5.61-7-9-.91-7.71,4.28-29,5.33-32.89a3.31,3.31,0,0,0,.11-1.25L272,345.16c0-.1,0-.21,0-.32V301.43a4.93,4.93,0,0,0-4.92-4.93h0c-1.64,0-2.49-2.77-3.58-4l-5.85-3.72A6.83,6.83,0,0,1,256,285Z"/></g><path class="cls-10" d="M263,292l-3.39-30.66a3.65,3.65,0,0,1,.22-1.67l13.32-34.43a3.52,3.52,0,0,1,3.29-2.26H422.5c.28,0,.5.72.5,1,0,0-2.58,6.86-6,8-3,1-.5.5-3,1l-30.14,7.5a3,3,0,0,0-2.93,2.29l-4.34,17.35a3.66,3.66,0,0,0-.1.74L375.15,301a3.1,3.1,0,0,0,.83,2.18c.9,1,1.8,2.23,3,3.34a8.07,8.07,0,0,1,2.49,5.9l-.93,87.69a4.76,4.76,0,0,0,.07.75l10.8,53a6.86,6.86,0,0,1,.14,1.27l.45,34.23a3.09,3.09,0,0,1-2.67,3.1,2.67,2.67,0,0,0-1.05.42L384.91,495a6.29,6.29,0,0,1-5.41.52l-6.19-2.83a3,3,0,0,0-.8-.2,3,3,0,0,1-2.5-2.35l-7.42-36.2a7.84,7.84,0,0,0-.23-.83l-18.71-56.15a3.42,3.42,0,0,1-.18-.9c-.25-4.17-2.29-35.64-6.83-37s-15.13,25.84-16.07,28.32a2.29,2.29,0,0,0-.12.37L311.5,422.5c-3.28,12.3-9.92,17.2-12.2,18.57a8.54,8.54,0,0,0-1.3.93c-1.7,1.47-8.22,2.24-13,1-4-1-6.6-5.61-7-9-.91-7.71,4.27-29,5.33-32.89a3.52,3.52,0,0,0,.11-1.25L279,352.16c0-.11,0-.21,0-.32V308.42a4.92,4.92,0,0,0-4.92-4.92h0c-1.64,0-2.49-2.77-3.58-4l-5.85-3.73A6.73,6.73,0,0,1,263,292Z"/><path class="cls-11" d="M274,299.89s34.44-1.39,37.47-2.89,12-.61,14,1.44,18.38,1.45,18.38,1.45l6.61-5.39,5-7v-8.24l-.86-2.05a4.43,4.43,0,0,0-4.08-2.71H270.71c-2,0-8.6,1.45-8.71,3.5l1,15c-.12,2.42,4.53,5.2,6.88,5.81Z"/><path class="cls-12" d="M259.54,260.39l11.17,14.11S262,276,262,278,259.54,260.39,259.54,260.39Z"/><ellipse class="cls-7" cx="327" cy="157" rx="29.5" ry="15.5"/><path class="cls-13" d="M297.7,441.53s9.78-4.59,12.54-15.06,11.38-43.9,13.57-47.19S333,361.47,333,361.47s3-5.53,5.48,0,5,34.57,5,34.57,22.73,63.31,21.63,70.13,3.69,25.57,3.69,25.57"/><line class="cls-14" x1="312.84" y1="416.59" x2="350.66" y2="416.59"/></g></g></svg>
