<svg xmlns="http://www.w3.org/2000/svg" viewBox="0 0 292 300"><g style="isolation:isolate"><g id="ef43ca17-751e-4aa9-a49c-c3edde0c2cba" data-name="Layer 1"><ellipse cx="146" cy="150" rx="146" ry="150" style="fill:#008f95"/><g style="opacity:0.75;mix-blend-mode:multiply"><path d="M176.76,287.77c1.36,3.28,7.33,3.92,10.63,1a4,4,0,0,0,.81-1.61,62.69,62.69,0,0,0-1.47-12.63c0-.2.07-.64,0-3-.07-2.09-3.78,3.23-5.7,3.13-1.65-.09-2.22-.78-3.91-1.71-.28-.16-1.32-1.65-1.53-1.42a21.75,21.75,0,0,0,0,3.61c0,6,.48,6.59,1.17,12.65" transform="translate(-9.91 -2.91)"/><path d="M176.76,287.77c1.36,3.28,7.33,3.92,10.63,1a4,4,0,0,0,.81-1.61,62.69,62.69,0,0,0-1.47-12.63c0-.2.07-.64,0-3-.07-2.09-3.78,3.23-5.7,3.13-1.65-.09-2.22-.78-3.91-1.71-.28-.16-1.32-1.65-1.53-1.42a21.75,21.75,0,0,0,0,3.61c0,6,.48,6.59,1.17,12.65" transform="translate(-9.91 -2.91)" style="fill:none;stroke:#000;stroke-miterlimit:10;stroke-width:2px"/></g><path d="M183.76,294.77c1.36,3.28,7.33,3.92,10.63,1a4,4,0,0,0,.81-1.61,62,62,0,0,0-1.48-12.63c0-.2.08-.65,0-3-.06-2.09-3.77,3.23-5.69,3.13-1.65-.09-2.22-.78-3.91-1.71-.28-.16-1.32-1.65-1.54-1.42a22.89,22.89,0,0,0,0,3.61c0,6,.49,6.59,1.18,12.65" transform="translate(-9.91 -2.91)" style="fill:#755112"/><path d="M183.76,294.77c1.36,3.28,7.33,3.92,10.63,1a4,4,0,0,0,.81-1.61,62,62,0,0,0-1.48-12.63c0-.2.08-.65,0-3-.06-2.09-3.77,3.23-5.69,3.13-1.65-.09-2.22-.78-3.91-1.71-.28-.16-1.32-1.65-1.54-1.42a22.89,22.89,0,0,0,0,3.61c0,6,.49,6.59,1.18,12.65" transform="translate(-9.91 -2.91)" style="fill:none;stroke:#000;stroke-miterlimit:10;stroke-width:2px"/><g style="opacity:0.75;mix-blend-mode:multiply"><path d="M123.87,243.1a2.21,2.21,0,0,0-2.3.46,5.83,5.83,0,0,0-1.58,3.37l-.88,5.13a2.46,2.46,0,0,0,.43,1.86,7.9,7.9,0,0,0,4.74,3.18,7.39,7.39,0,0,0,4.38-.7,2.4,2.4,0,0,0,1.32-1.77l1-5.64a3.73,3.73,0,0,0-2.34-4.16Z" transform="translate(-9.91 -2.91)"/><path d="M123.87,243.1a2.21,2.21,0,0,0-2.3.46,5.83,5.83,0,0,0-1.58,3.37l-.88,5.13a2.46,2.46,0,0,0,.43,1.86,7.9,7.9,0,0,0,4.74,3.18,7.39,7.39,0,0,0,4.38-.7,2.4,2.4,0,0,0,1.32-1.77l1-5.64a3.73,3.73,0,0,0-2.34-4.16Z" transform="translate(-9.91 -2.91)" style="fill:none;stroke:#000;stroke-miterlimit:10;stroke-width:2px"/></g><path d="M130.86,250.09a2.23,2.23,0,0,0-2.29.47,5.83,5.83,0,0,0-1.58,3.37l-.88,5.12a2.47,2.47,0,0,0,.43,1.87,7.9,7.9,0,0,0,4.74,3.18,7.34,7.34,0,0,0,4.37-.7,2.39,2.39,0,0,0,1.33-1.77l1-5.64a3.73,3.73,0,0,0-2.34-4.16Z" transform="translate(-9.91 -2.91)" style="fill:#755112"/><path d="M130.86,250.09a2.23,2.23,0,0,0-2.29.47,5.83,5.83,0,0,0-1.58,3.37l-.88,5.12a2.47,2.47,0,0,0,.43,1.87,7.9,7.9,0,0,0,4.74,3.18,7.34,7.34,0,0,0,4.37-.7,2.39,2.39,0,0,0,1.33-1.77l1-5.64a3.73,3.73,0,0,0-2.34-4.16Z" transform="translate(-9.91 -2.91)" style="fill:none;stroke:#1d1d1b;stroke-miterlimit:10;stroke-width:2px"/><polygon points="34.47 116.87 271.8 116.87 271.77 100.3 34.47 100.24 34.47 116.87" style="fill:#0b0b0b"/><polygon points="38.41 105.12 38.41 111.75 269.01 111.52 269.01 105.12 38.41 105.12" style="fill:#a9a6a6"/><path d="M44.54,102.57,70,54.41H255.29l26.39,48.8H44.91A.43.43,0,0,1,44.54,102.57Z" transform="translate(-9.91 -2.91)" style="fill:#0b0b0b"/><path d="M58.25,119.77c.62,3.92-13.76,122.57-13.76,122.57H249.12l12.62-10.82V119.77Z" transform="translate(-9.91 -2.91)" style="fill:#2b2b2b"/><rect x="55.5" y="117.31" width="190.43" height="111.5" style="fill:#5c5a5a"/><rect x="68.63" y="120.04" width="164.18" height="97.59" style="fill:#a9a6a6"/><g style="opacity:0.75;mix-blend-mode:multiply"><path d="M112,154.35l-2-18.47a2.13,2.13,0,0,1,.13-1l7.8-20.74a2.09,2.09,0,0,1,1.94-1.37h85.65c.16,0,.29.44.29.61,0,0-1.51,4.13-3.52,4.82-1.75.6-.29.3-1.75.6l-17.68,4.52a1.79,1.79,0,0,0-1.72,1.38l-2.54,10.45a2.12,2.12,0,0,0-.06.44l-.78,24.18a1.87,1.87,0,0,0,.48,1.31c.53.59,1.06,1.35,1.74,2a5,5,0,0,1,1.46,3.56l-.55,52.83a2.12,2.12,0,0,0,0,.44l6.33,31.93a5,5,0,0,1,.08.77l.26,20.62a1.85,1.85,0,0,1-1.56,1.87,1.59,1.59,0,0,0-.62.25l-2,1.26a3.59,3.59,0,0,1-3.17.31l-3.63-1.7a1.55,1.55,0,0,0-.47-.12,1.79,1.79,0,0,1-1.47-1.42l-4.35-21.81a4.6,4.6,0,0,0-.13-.5l-11-33.82a2.56,2.56,0,0,1-.1-.54c-.15-2.52-1.34-21.47-4-22.32s-8.87,15.57-9.42,17.06c0,.08-.05.15-.07.22l-5.25,21c-1.92,7.41-5.81,10.37-7.15,11.19a5.32,5.32,0,0,0-.76.56c-1,.89-4.82,1.35-7.62.6-2.33-.62-3.87-3.37-4.11-5.42-.53-4.64,2.51-17.48,3.13-19.81a2.16,2.16,0,0,0,.06-.76l-2.59-28.73a1.21,1.21,0,0,1,0-.19V164.23a2.93,2.93,0,0,0-2.89-3h0c-1,0-1.46-1.67-2.1-2.41l-3.43-2.25A4.15,4.15,0,0,1,112,154.35Z" transform="translate(-9.91 -2.91)"/><path d="M112,154.35l-2-18.47a2.13,2.13,0,0,1,.13-1l7.8-20.74a2.09,2.09,0,0,1,1.94-1.37h85.65c.16,0,.29.44.29.61,0,0-1.51,4.13-3.52,4.82-1.75.6-.29.3-1.75.6l-17.68,4.52a1.79,1.79,0,0,0-1.72,1.38l-2.54,10.45a2.12,2.12,0,0,0-.06.44l-.78,24.18a1.87,1.87,0,0,0,.48,1.31c.53.59,1.06,1.35,1.74,2a5,5,0,0,1,1.46,3.56l-.55,52.83a2.12,2.12,0,0,0,0,.44l6.33,31.93a5,5,0,0,1,.08.77l.26,20.62a1.85,1.85,0,0,1-1.56,1.87,1.59,1.59,0,0,0-.62.25l-2,1.26a3.59,3.59,0,0,1-3.17.31l-3.63-1.7a1.55,1.55,0,0,0-.47-.12,1.79,1.79,0,0,1-1.47-1.42l-4.35-21.81a4.6,4.6,0,0,0-.13-.5l-11-33.82a2.56,2.56,0,0,1-.1-.54c-.15-2.52-1.34-21.47-4-22.32s-8.87,15.57-9.42,17.06c0,.08-.05.15-.07.22l-5.25,21c-1.92,7.41-5.81,10.37-7.15,11.19a5.32,5.32,0,0,0-.76.56c-1,.89-4.82,1.35-7.62.6-2.33-.62-3.87-3.37-4.11-5.42-.53-4.64,2.51-17.48,3.13-19.81a2.16,2.16,0,0,0,.06-.76l-2.59-28.73a1.21,1.21,0,0,1,0-.19V164.23a2.93,2.93,0,0,0-2.89-3h0c-1,0-1.46-1.67-2.1-2.41l-3.43-2.25A4.15,4.15,0,0,1,112,154.35Z" transform="translate(-9.91 -2.91)" style="fill:none;stroke:#000;stroke-miterlimit:10;stroke-width:2px"/></g><path d="M119,161.35l-2-18.47a2.13,2.13,0,0,1,.13-1l7.8-20.75a2.08,2.08,0,0,1,1.94-1.36h85.65c.16,0,.29.44.29.61,0,0-1.51,4.13-3.52,4.81-1.76.61-.29.31-1.76.61l-17.67,4.52a1.78,1.78,0,0,0-1.72,1.37l-2.54,10.45a1.74,1.74,0,0,0-.06.45l-.79,24.17a1.93,1.93,0,0,0,.49,1.32c.53.59,1.06,1.35,1.73,2a4.88,4.88,0,0,1,1.46,3.56l-.54,52.82a2.3,2.3,0,0,0,0,.45l6.33,31.93a4.9,4.9,0,0,1,.08.77l.26,20.62a1.85,1.85,0,0,1-1.56,1.87,1.59,1.59,0,0,0-.62.25l-2,1.26a3.61,3.61,0,0,1-3.18.31l-3.62-1.7a1.93,1.93,0,0,0-.47-.13,1.76,1.76,0,0,1-1.47-1.41l-4.35-21.81c0-.17-.08-.33-.13-.5l-11-33.82a2.56,2.56,0,0,1-.1-.54c-.15-2.52-1.35-21.48-4-22.32s-8.87,15.57-9.42,17.06a1.87,1.87,0,0,0-.07.22l-5.25,21c-1.92,7.41-5.81,10.37-7.15,11.19a4.66,4.66,0,0,0-.76.56c-1,.89-4.82,1.35-7.62.6-2.33-.62-3.88-3.38-4.11-5.42-.53-4.65,2.51-17.48,3.13-19.81a2.42,2.42,0,0,0,.06-.76l-2.59-28.73a1.21,1.21,0,0,1,0-.19V171.23a2.93,2.93,0,0,0-2.89-3h0c-1,0-1.46-1.67-2.1-2.41l-3.43-2.25A4.17,4.17,0,0,1,119,161.35Z" transform="translate(-9.91 -2.91)" style="fill:#008f95"/><path d="M119,161.35l-2-18.47a2.13,2.13,0,0,1,.13-1l7.8-20.75a2.08,2.08,0,0,1,1.94-1.36h85.65c.16,0,.29.44.29.61,0,0-1.51,4.13-3.52,4.81-1.76.61-.29.31-1.76.61l-17.67,4.52a1.78,1.78,0,0,0-1.72,1.37l-2.54,10.45a1.74,1.74,0,0,0-.06.45l-.79,24.17a1.93,1.93,0,0,0,.49,1.32c.53.59,1.06,1.35,1.73,2a4.88,4.88,0,0,1,1.46,3.56l-.54,52.82a2.3,2.3,0,0,0,0,.45l6.33,31.93a4.9,4.9,0,0,1,.08.77l.26,20.62a1.85,1.85,0,0,1-1.56,1.87,1.59,1.59,0,0,0-.62.25l-2,1.26a3.61,3.61,0,0,1-3.18.31l-3.62-1.7a1.93,1.93,0,0,0-.47-.13,1.76,1.76,0,0,1-1.47-1.41l-4.35-21.81c0-.17-.08-.33-.13-.5l-11-33.82a2.56,2.56,0,0,1-.1-.54c-.15-2.52-1.35-21.48-4-22.32s-8.87,15.57-9.42,17.06a1.87,1.87,0,0,0-.07.22l-5.25,21c-1.92,7.41-5.81,10.37-7.15,11.19a4.66,4.66,0,0,0-.76.56c-1,.89-4.82,1.35-7.62.6-2.33-.62-3.88-3.38-4.11-5.42-.53-4.65,2.51-17.48,3.13-19.81a2.42,2.42,0,0,0,.06-.76l-2.59-28.73a1.21,1.21,0,0,1,0-.19V171.23a2.93,2.93,0,0,0-2.89-3h0c-1,0-1.46-1.67-2.1-2.41l-3.43-2.25A4.17,4.17,0,0,1,119,161.35Z" transform="translate(-9.91 -2.91)" style="fill:none;stroke:#1d1d1b;stroke-miterlimit:10;stroke-width:2px"/><path d="M125.42,166.09s20.19-.84,22-1.74,7.07-.37,8.24.87,10.78.87,10.78.87l3.87-3.24,2.93-4.22v-5l-.5-1.23a2.6,2.6,0,0,0-2.4-1.63H123.49c-1.21,0-5,.87-5.11,2.11l.59,9c-.08,1.46,2.65,3.14,4,3.5Z" transform="translate(-9.91 -2.91)" style="fill:#dba56c"/><path d="M116.94,142.29l6.55,8.51s-5.11.9-5.11,2.11S116.94,142.29,116.94,142.29Z" transform="translate(-9.91 -2.91)" style="fill:#023f3f"/><ellipse cx="146.59" cy="77.11" rx="17.3" ry="9.34" style="fill:#a9a6a6"/><path d="M139.31,251.41a15,15,0,0,0,7.35-9.07c1.62-6.3,6.68-26.44,8-28.42S160,203.19,160,203.19s1.76-3.33,3.21,0S166.15,224,166.15,224s13.33,38.13,12.68,42.24,2.16,15.4,2.16,15.4" transform="translate(-9.91 -2.91)" style="fill:none;stroke:#f6f6f6;stroke-miterlimit:10;stroke-width:10px"/><line x1="138.28" y1="233.49" x2="160.46" y2="233.49" style="fill:none;stroke:#f6f6f6;stroke-miterlimit:10;stroke-width:8px"/></g></g></svg>